<?xml version="1.0" encoding="UTF-8"?>
<svg id="Capa_1" xmlns="http://www.w3.org/2000/svg" viewBox="0 0 90 90"><defs><style>.cls-1{fill:#282d6a;}</style></defs><g id="g26"><g id="g32"><path id="path34" class="cls-1" d="M44.6,32.11l-5.53,25.84h-6.68l5.53-25.84h6.68Zm28.12,16.68l3.52-9.7,2.02,9.7h-5.54Zm7.46,9.15h6.18l-5.4-25.84h-5.7c-1.29,0-2.37,.75-2.85,1.9l-10.03,23.94h7.02l1.39-3.86h8.57l.81,3.86Zm-17.45-8.44c.03-6.82-9.43-7.2-9.36-10.24,.02-.93,.9-1.91,2.83-2.16,.96-.12,3.6-.22,6.59,1.16l1.17-5.48c-1.61-.58-3.68-1.14-6.25-1.14-6.61,0-11.26,3.51-11.29,8.54-.04,3.72,3.32,5.79,5.85,7.03,2.61,1.27,3.48,2.08,3.47,3.21-.02,1.73-2.08,2.5-4,2.53-3.36,.05-5.31-.91-6.86-1.63l-1.21,5.66c1.56,.72,4.45,1.34,7.43,1.37,7.03,0,11.62-3.47,11.64-8.84m-27.68-17.4l-10.83,25.84h-7.06l-5.33-20.62c-.32-1.27-.6-1.73-1.59-2.27-1.61-.87-4.26-1.69-6.59-2.2l.16-.75H15.17c1.45,0,2.75,.96,3.08,2.63l2.82,14.95,6.95-17.59h7.02Z"/></g></g></svg>