<svg width="0" height="0" class="hidden">
  <symbol xmlns="http://www.w3.org/2000/svg" viewBox="0 0 512 512" id="magnifying-glass-solid">
    <path d="M416 208c0 45.9-14.9 88.3-40 122.7L502.6 457.4c12.5 12.5 12.5 32.8 0 45.3s-32.8 12.5-45.3 0L330.7 376c-34.4 25.2-76.8 40-122.7 40C93.1 416 0 322.9 0 208S93.1 0 208 0S416 93.1 416 208zM208 352a144 144 0 1 0 0-288 144 144 0 1 0 0 288z"></path>
  </symbol>
  <symbol xmlns="http://www.w3.org/2000/svg" viewBox="0 0 576 512" id="eye-regular">
    <path d="M288 80c-65.2 0-118.8 29.6-159.9 67.7C89.6 183.5 63 226 49.4 256c13.6 30 40.2 72.5 78.6 108.3C169.2 402.4 222.8 432 288 432s118.8-29.6 159.9-67.7C486.4 328.5 513 286 526.6 256c-13.6-30-40.2-72.5-78.6-108.3C406.8 109.6 353.2 80 288 80zM95.4 112.6C142.5 68.8 207.2 32 288 32s145.5 36.8 192.6 80.6c46.8 43.5 78.1 95.4 93 131.1c3.3 7.9 3.3 16.7 0 24.6c-14.9 35.7-46.2 87.7-93 131.1C433.5 443.2 368.8 480 288 480s-145.5-36.8-192.6-80.6C48.6 356 17.3 304 2.5 268.3c-3.3-7.9-3.3-16.7 0-24.6C17.3 208 48.6 156 95.4 112.6zM288 336c44.2 0 80-35.8 80-80s-35.8-80-80-80c-.7 0-1.3 0-2 0c1.3 5.1 2 10.5 2 16c0 35.3-28.7 64-64 64c-5.5 0-10.9-.7-16-2c0 .7 0 1.3 0 2c0 44.2 35.8 80 80 80zm0-208a128 128 0 1 1 0 256 128 128 0 1 1 0-256z"></path>
  </symbol>
  <symbol xmlns="http://www.w3.org/2000/svg" viewBox="0 0 384 512" id="moon-regular">
    <path d="M144.7 98.7c-21 34.1-33.1 74.3-33.1 117.3c0 98 62.8 181.4 150.4 211.7c-12.4 2.8-25.3 4.3-38.6 4.3C126.6 432 48 353.3 48 256c0-68.9 39.4-128.4 96.8-157.3zm62.1-66C91.1 41.2 0 137.9 0 256C0 379.7 100 480 223.5 480c47.8 0 92-15 128.4-40.6c1.9-1.3 3.7-2.7 5.5-4c4.8-3.6 9.4-7.4 13.9-11.4c2.7-2.4 5.3-4.8 7.9-7.3c5-4.9 6.3-12.5 3.1-18.7s-10.1-9.7-17-8.5c-3.7 .6-7.4 1.2-11.1 1.6c-5 .5-10.1 .9-15.3 1c-1.2 0-2.5 0-3.7 0c-.1 0-.2 0-.3 0c-96.8-.2-175.2-78.9-175.2-176c0-54.8 24.9-103.7 64.1-136c1-.9 2.1-1.7 3.2-2.6c4-3.2 8.2-6.2 12.5-9c3.1-2 6.3-4 9.6-5.8c6.1-3.5 9.2-10.5 7.7-17.3s-7.3-11.9-14.3-12.5c-3.6-.3-7.1-.5-10.7-.6c-2.7-.1-5.5-.1-8.2-.1c-3.3 0-6.5 .1-9.8 .2c-2.3 .1-4.6 .2-6.9 .4z"></path>
  </symbol>
  <symbol xmlns="http://www.w3.org/2000/svg" viewBox="0 0 512 512" id="comment-regular">
    <path d="M123.6 391.3c12.9-9.4 29.6-11.8 44.6-6.4c26.5 9.6 56.2 15.1 87.8 15.1c124.7 0 208-80.5 208-160s-83.3-160-208-160S48 160.5 48 240c0 32 12.4 62.8 35.7 89.2c8.6 9.7 12.8 22.5 11.8 35.5c-1.4 18.1-5.7 34.7-11.3 49.4c17-7.9 31.1-16.7 39.4-22.7zM21.2 431.9c1.8-2.7 3.5-5.4 5.1-8.1c10-16.6 19.5-38.4 21.4-62.9C17.7 326.8 0 285.1 0 240C0 125.1 114.6 32 256 32s256 93.1 256 208s-114.6 208-256 208c-37.1 0-72.3-6.4-104.1-17.9c-11.9 8.7-31.3 20.6-54.3 30.6c-15.1 6.6-32.3 12.6-50.1 16.1c-.8 .2-1.6 .3-2.4 .5c-4.4 .8-8.7 1.5-13.2 1.9c-.2 0-.5 .1-.7 .1c-5.1 .5-10.2 .8-15.3 .8c-6.5 0-12.3-3.9-14.8-9.9c-2.5-6-1.1-12.8 3.4-17.4c4.1-4.2 7.8-8.7 11.3-13.5c1.7-2.3 3.3-4.6 4.8-6.9c.1-.2 .2-.3 .3-.5z"></path>
  </symbol>
  <symbol xmlns="http://www.w3.org/2000/svg" viewBox="0 0 448 512" id="trash-can-regular">
    <path d="M170.5 51.6L151.5 80h145l-19-28.4c-1.5-2.2-4-3.6-6.7-3.6H177.1c-2.7 0-5.2 1.3-6.7 3.6zm147-26.6L354.2 80H368h48 8c13.3 0 24 10.7 24 24s-10.7 24-24 24h-8V432c0 44.2-35.8 80-80 80H112c-44.2 0-80-35.8-80-80V128H24c-13.3 0-24-10.7-24-24S10.7 80 24 80h8H80 93.8l36.7-55.1C140.9 9.4 158.4 0 177.1 0h93.7c18.7 0 36.2 9.4 46.6 24.9zM80 128V432c0 17.7 14.3 32 32 32H336c17.7 0 32-14.3 32-32V128H80zm80 64V400c0 8.8-7.2 16-16 16s-16-7.2-16-16V192c0-8.8 7.2-16 16-16s16 7.2 16 16zm80 0V400c0 8.8-7.2 16-16 16s-16-7.2-16-16V192c0-8.8 7.2-16 16-16s16 7.2 16 16zm80 0V400c0 8.8-7.2 16-16 16s-16-7.2-16-16V192c0-8.8 7.2-16 16-16s16 7.2 16 16z"></path>
  </symbol>
  <symbol xmlns="http://www.w3.org/2000/svg" viewBox="0 0 512 512" id="circle-user-regular">
    <path d="M406.5 399.6C387.4 352.9 341.5 320 288 320H224c-53.5 0-99.4 32.9-118.5 79.6C69.9 362.2 48 311.7 48 256C48 141.1 141.1 48 256 48s208 93.1 208 208c0 55.7-21.9 106.2-57.5 143.6zm-40.1 32.7C334.4 452.4 296.6 464 256 464s-78.4-11.6-110.5-31.7c7.3-36.7 39.7-64.3 78.5-64.3h64c38.8 0 71.2 27.6 78.5 64.3zM256 512A256 256 0 1 0 256 0a256 256 0 1 0 0 512zm0-272a40 40 0 1 1 0-80 40 40 0 1 1 0 80zm-88-40a88 88 0 1 0 176 0 88 88 0 1 0 -176 0z"></path>
  </symbol>
  <symbol xmlns="http://www.w3.org/2000/svg" viewBox="0 0 576 512" id="folder-open-regular">
    <path d="M384 480h48c11.4 0 21.9-6 27.6-15.9l112-192c5.8-9.9 5.8-22.1 .1-32.1S555.5 224 544 224H144c-11.4 0-21.9 6-27.6 15.9L48 357.1V96c0-8.8 7.2-16 16-16H181.5c4.2 0 8.3 1.7 11.3 4.7l26.5 26.5c21 21 49.5 32.8 79.2 32.8H416c8.8 0 16 7.2 16 16v32h48V160c0-35.3-28.7-64-64-64H298.5c-17 0-33.3-6.7-45.3-18.7L226.7 50.7c-12-12-28.3-18.7-45.3-18.7H64C28.7 32 0 60.7 0 96V416c0 35.3 28.7 64 64 64H87.7 384z"></path>
  </symbol>
  <symbol xmlns="http://www.w3.org/2000/svg" viewBox="0 0 512 512" id="folder-regular">
    <path d="M0 96C0 60.7 28.7 32 64 32H196.1c19.1 0 37.4 7.6 50.9 21.1L289.9 96H448c35.3 0 64 28.7 64 64V416c0 35.3-28.7 64-64 64H64c-35.3 0-64-28.7-64-64V96zM64 80c-8.8 0-16 7.2-16 16V416c0 8.8 7.2 16 16 16H448c8.8 0 16-7.2 16-16V160c0-8.8-7.2-16-16-16H286.6c-10.6 0-20.8-4.2-28.3-11.7L213.1 87c-4.5-4.5-10.6-7-17-7H64z"></path>
  </symbol>
  <symbol xmlns="http://www.w3.org/2000/svg" viewBox="0 0 448 512" id="user-regular">
    <path d="M304 128a80 80 0 1 0 -160 0 80 80 0 1 0 160 0zM96 128a128 128 0 1 1 256 0A128 128 0 1 1 96 128zM49.3 464H398.7c-8.9-63.3-63.3-112-129-112H178.3c-65.7 0-120.1 48.7-129 112zM0 482.3C0 383.8 79.8 304 178.3 304h91.4C368.2 304 448 383.8 448 482.3c0 16.4-13.3 29.7-29.7 29.7H29.7C13.3 512 0 498.7 0 482.3z"></path>
  </symbol>
  <symbol xmlns="http://www.w3.org/2000/svg" viewBox="0 0 640 512" id="eye-slash-regular">
    <path d="M38.8 5.1C28.4-3.1 13.3-1.2 5.1 9.2S-1.2 34.7 9.2 42.9l592 464c10.4 8.2 25.5 6.3 33.7-4.1s6.3-25.5-4.1-33.7L525.6 386.7c39.6-40.6 66.4-86.1 79.9-118.4c3.3-7.9 3.3-16.7 0-24.6c-14.9-35.7-46.2-87.7-93-131.1C465.5 68.8 400.8 32 320 32c-68.2 0-125 26.3-169.3 60.8L38.8 5.1zm151 118.3C226 97.7 269.5 80 320 80c65.2 0 118.8 29.6 159.9 67.7C518.4 183.5 545 226 558.6 256c-12.6 28-36.6 66.8-70.9 100.9l-53.8-42.2c9.1-17.6 14.2-37.5 14.2-58.7c0-70.7-57.3-128-128-128c-32.2 0-61.7 11.9-84.2 31.5l-46.1-36.1zM394.9 284.2l-81.5-63.9c4.2-8.5 6.6-18.2 6.6-28.3c0-5.5-.7-10.9-2-16c.7 0 1.3 0 2 0c44.2 0 80 35.8 80 80c0 9.9-1.8 19.4-5.1 28.2zm9.4 130.3C378.8 425.4 350.7 432 320 432c-65.2 0-118.8-29.6-159.9-67.7C121.6 328.5 95 286 81.4 256c8.3-18.4 21.5-41.5 39.4-64.8L83.1 161.5C60.3 191.2 44 220.8 34.5 243.7c-3.3 7.9-3.3 16.7 0 24.6c14.9 35.7 46.2 87.7 93 131.1C174.5 443.2 239.2 480 320 480c47.8 0 89.9-12.9 126.2-32.5l-41.9-33zM192 256c0 70.7 57.3 128 128 128c13.3 0 26.1-2 38.2-5.8L302 334c-23.5-5.4-43.1-21.2-53.7-42.3l-56.1-44.2c-.2 2.8-.3 5.6-.3 8.5z"></path>
  </symbol>
  <symbol xmlns="http://www.w3.org/2000/svg" viewBox="0 0 512 512" id="hand-point-left-regular">
    <path d="M64 128l177.6 0c-1 5.2-1.6 10.5-1.6 16l0 16-32 0L64 160c-8.8 0-16-7.2-16-16s7.2-16 16-16zm224 16c0-17.7 14.3-32 32-32c0 0 0 0 0 0l24 0c66.3 0 120 53.7 120 120l0 48c0 52.5-33.7 97.1-80.7 113.4c.5-3.1 .7-6.2 .7-9.4c0-20-9.2-37.9-23.6-49.7c4.9-9 7.6-19.4 7.6-30.3c0-15.1-5.3-29-14-40c8.8-11 14-24.9 14-40l0-40c0-13.3-10.7-24-24-24s-24 10.7-24 24l0 40c0 8.8-7.2 16-16 16s-16-7.2-16-16l0-40 0-40zm32-80s0 0 0 0c-18 0-34.6 6-48 16L64 80C28.7 80 0 108.7 0 144s28.7 64 64 64l82 0c-1.3 5.1-2 10.5-2 16c0 25.3 14.7 47.2 36 57.6c-2.6 7-4 14.5-4 22.4c0 20 9.2 37.9 23.6 49.7c-4.9 9-7.6 19.4-7.6 30.3c0 35.3 28.7 64 64 64l64 0 24 0c92.8 0 168-75.2 168-168l0-48c0-92.8-75.2-168-168-168l-24 0zM256 400c-8.8 0-16-7.2-16-16s7.2-16 16-16l48 0 16 0c8.8 0 16 7.2 16 16s-7.2 16-16 16l-64 0zM240 224c0 5.5 .7 10.9 2 16l-2 0-32 0c-8.8 0-16-7.2-16-16s7.2-16 16-16l32 0 0 16zm24 64l40 0c8.8 0 16 7.2 16 16s-7.2 16-16 16l-48 0-16 0c-8.8 0-16-7.2-16-16s7.2-16 16-16l24 0z"></path>
  </symbol>
</svg>